<svg version="1" xmlns="http://www.w3.org/2000/svg" width="728" height="728" viewBox="0 0 546.000000 546.000000"><path d="M.2 81.5l.3 73H146l-.2-73-.3-73H0l.2 73zM200 81.5v73h145.5V8.5H200v73zM400.4 8.9c-.2.2-.4 33.1-.4 73v72.6h146V8.5h-72.6c-39.9 0-72.7.2-73 .4zM.2 273.3l.3 73 70-.1c38.5 0 71.2-.1 72.8-.1l2.7-.1V200.3H0l.2 73zM200 273.2c0 57.5.3 72.8 1.3 72.9 1.6.1 143 .1 144 0 .4-.1.7-32.9.7-72.9v-72.9H200v72.9zM400 273.2c0 57.5.3 72.8 1.3 72.9 1.5.1 141.8.1 143.5 0 .9-.1 1.2-15.4 1.2-72.9v-72.9H400v72.9zM0 465v73h146V392H0v73zM200 465v73h146V392H200v73zM400 465v73h146V392H400v73z"/></svg>