<?xml version="1.0" encoding="UTF-8"?>
<svg width="42px" height="42px" viewBox="0 0 42 42" version="1.1" xmlns="http://www.w3.org/2000/svg" xmlns:xlink="http://www.w3.org/1999/xlink">
    <!-- Generator: Sketch 49.3 (51167) - http://www.bohemiancoding.com/sketch -->
    <title>ic-loop-24px</title>
    <desc>Created with Sketch.</desc>
    <defs>
        <circle id="path-1" cx="19.8" cy="19" r="19"></circle>
    </defs>
    <g id="Page-1" stroke="none" stroke-width="1" fill="none" fill-rule="evenodd">
        <g id="Desktop-HD" transform="translate(-296.000000, -620.000000)">
            <g id="Group-7" transform="translate(256.500000, 430.500000) rotate(90.000000) translate(-256.500000, -430.500000) translate(-100.000000, 351.000000)">
                <g id="Group-5" transform="translate(164.000000, 0.000000)">
                    <g id="ic-loop-24px" transform="translate(383.000000, 0.000000)">
                        <mask id="mask-2" fill="white">
                            <use xlink:href="#path-1"></use>
                        </mask>
                        <use id="Mask" stroke="#E0E0E0" stroke-width="3" xlink:href="#path-1"></use>
                        <g mask="url(#mask-2)" id="Shape">
                            <g transform="translate(8.000000, 7.000000)">
                                <path d="M12,4 L12,1 L8,5 L12,9 L12,6 C15.31,6 18,8.69 18,12 C18,13.01 17.75,13.97 17.3,14.8 L18.76,16.26 C19.54,15.03 20,13.57 20,12 C20,7.58 16.42,4 12,4 Z M12,18 C8.69,18 6,15.31 6,12 C6,10.99 6.25,10.03 6.7,9.2 L5.24,7.74 C4.46,8.97 4,10.43 4,12 C4,16.42 7.58,20 12,20 L12,23 L16,19 L12,15 L12,18 Z" fill="#FFFFFF" fill-rule="nonzero"></path>
                                <polygon fill="none" points="0 0 24 0 24 24 0 24"></polygon>
                            </g>
                        </g>
                    </g>
                </g>
            </g>
        </g>
    </g>
</svg>