<?xml version="1.0" encoding="UTF-8"?>
<svg width="28px" height="28px" viewBox="0 0 28 28" version="1.1" xmlns="http://www.w3.org/2000/svg" xmlns:xlink="http://www.w3.org/1999/xlink">
    <!-- Generator: Sketch 49.3 (51167) - http://www.bohemiancoding.com/sketch -->
    <title>Shape</title>
    <desc>Created with Sketch.</desc>
    <defs></defs>
    <g id="Page-1" stroke="none" stroke-width="1" fill="none" fill-rule="evenodd">
        <g id="Desktop-HD" transform="translate(-1209.000000, -149.000000)" fill="#FFFFFF" fill-rule="nonzero">
            <g id="ic-settings-24px" transform="translate(1206.000000, 146.000000)">
                <path d="M27.6969886,18.372 C27.7545596,17.924 27.7977378,17.476 27.7977378,17 C27.7977378,16.524 27.7545596,16.076 27.6969886,15.628 L30.7338578,13.318 C31.00732,13.108 31.0792837,12.73 30.9065708,12.422 L28.0280217,7.578 C27.8553088,7.27 27.4667047,7.158 27.1500643,7.27 L23.5662708,8.67 C22.817848,8.11 22.0118543,7.648 21.1338968,7.298 L20.5869725,3.588 C20.5437943,3.252 20.2415466,3 19.881728,3 L14.12463,3 C13.7648113,3 13.4625637,3.252 13.4193855,3.588 L12.8724611,7.298 C11.9945037,7.648 11.18851,8.124 10.4400872,8.67 L6.85629369,7.27 C6.52526055,7.144 6.15104917,7.27 5.97833623,7.578 L3.09978721,12.422 C2.91268152,12.73 2.99903799,13.108 3.27250015,13.318 L6.30936937,15.628 C6.25179839,16.076 6.20862015,16.538 6.20862015,17 C6.20862015,17.462 6.25179839,17.924 6.30936937,18.372 L3.27250015,20.682 C2.99903799,20.892 2.92707427,21.27 3.09978721,21.578 L5.97833623,26.422 C6.15104917,26.73 6.53965329,26.842 6.85629369,26.73 L10.4400872,25.33 C11.18851,25.89 11.9945037,26.352 12.8724611,26.702 L13.4193855,30.412 C13.4625637,30.748 13.7648113,31 14.12463,31 L19.881728,31 C20.2415466,31 20.5437943,30.748 20.5869725,30.412 L21.1338968,26.702 C22.0118543,26.352 22.817848,25.876 23.5662708,25.33 L27.1500643,26.73 C27.4810974,26.856 27.8553088,26.73 28.0280217,26.422 L30.9065708,21.578 C31.0792837,21.27 31.00732,20.892 30.7338578,20.682 L27.6969886,18.372 Z M17.003179,21.9 C14.2253792,21.9 11.9657182,19.702 11.9657182,17 C11.9657182,14.298 14.2253792,12.1 17.003179,12.1 C19.7809788,12.1 22.0406398,14.298 22.0406398,17 C22.0406398,19.702 19.7809788,21.9 17.003179,21.9 Z" id="Shape"></path>
            </g>
        </g>
    </g>
</svg>